<svg id="visual" viewBox="0 0 900 600" width="900" height="600" xmlns="http://www.w3.org/2000/svg" xmlns:xlink="http://www.w3.org/1999/xlink" version="1.1"><rect x="0" y="0" width="900" height="600" fill="#b4afd8"></rect><path d="M0 367L129 424L257 439L386 433L514 439L643 401L771 364L900 379L900 601L771 601L643 601L514 601L386 601L257 601L129 601L0 601Z" fill="#51518d"></path><path d="M0 426L129 429L257 477L386 468L514 462L643 411L771 452L900 422L900 601L771 601L643 601L514 601L386 601L257 601L129 601L0 601Z" fill="#46428e"></path><path d="M0 454L129 439L257 466L386 469L514 504L643 502L771 496L900 500L900 601L771 601L643 601L514 601L386 601L257 601L129 601L0 601Z" fill="#3c318d"></path><path d="M0 542L129 493L257 512L386 529L514 531L643 510L771 493L900 508L900 601L771 601L643 601L514 601L386 601L257 601L129 601L0 601Z" fill="#341e8b"></path><path d="M0 560L129 562L257 561L386 540L514 569L643 531L771 571L900 563L900 601L771 601L643 601L514 601L386 601L257 601L129 601L0 601Z" fill="#2d0087"></path></svg>