<svg id="visual" viewBox="0 0 900 600" width="900" height="600" xmlns="http://www.w3.org/2000/svg" xmlns:xlink="http://www.w3.org/1999/xlink" version="1.1"><path d="M0 151L13.7 140C27.3 129 54.7 107 82 105C109.3 103 136.7 121 163.8 122C191 123 218 107 245.2 113C272.3 119 299.7 147 327 159C354.3 171 381.7 167 409 162C436.3 157 463.7 151 491 147C518.3 143 545.7 141 573 140C600.3 139 627.7 139 654.8 132C682 125 709 111 736.2 100C763.3 89 790.7 81 818 73C845.3 65 872.7 57 886.3 53L900 49L900 0L886.3 0C872.7 0 845.3 0 818 0C790.7 0 763.3 0 736.2 0C709 0 682 0 654.8 0C627.7 0 600.3 0 573 0C545.7 0 518.3 0 491 0C463.7 0 436.3 0 409 0C381.7 0 354.3 0 327 0C299.7 0 272.3 0 245.2 0C218 0 191 0 163.8 0C136.7 0 109.3 0 82 0C54.7 0 27.3 0 13.7 0L0 0Z" fill="#b19cfb"></path><path d="M0 199L13.7 198C27.3 197 54.7 195 82 202C109.3 209 136.7 225 163.8 225C191 225 218 209 245.2 205C272.3 201 299.7 209 327 215C354.3 221 381.7 225 409 229C436.3 233 463.7 237 491 239C518.3 241 545.7 241 573 234C600.3 227 627.7 213 654.8 198C682 183 709 167 736.2 155C763.3 143 790.7 135 818 131C845.3 127 872.7 127 886.3 127L900 127L900 47L886.3 51C872.7 55 845.3 63 818 71C790.7 79 763.3 87 736.2 98C709 109 682 123 654.8 130C627.7 137 600.3 137 573 138C545.7 139 518.3 141 491 145C463.7 149 436.3 155 409 160C381.7 165 354.3 169 327 157C299.7 145 272.3 117 245.2 111C218 105 191 121 163.8 120C136.7 119 109.3 101 82 103C54.7 105 27.3 127 13.7 138L0 149Z" fill="#9f86f9"></path><path d="M0 307L13.7 314C27.3 321 54.7 335 82 359C109.3 383 136.7 417 163.8 418C191 419 218 387 245.2 388C272.3 389 299.7 423 327 427C354.3 431 381.7 405 409 388C436.3 371 463.7 363 491 369C518.3 375 545.7 395 573 403C600.3 411 627.7 407 654.8 389C682 371 709 339 736.2 325C763.3 311 790.7 315 818 322C845.3 329 872.7 339 886.3 344L900 349L900 125L886.3 125C872.7 125 845.3 125 818 129C790.7 133 763.3 141 736.2 153C709 165 682 181 654.8 196C627.7 211 600.3 225 573 232C545.7 239 518.3 239 491 237C463.7 235 436.3 231 409 227C381.7 223 354.3 219 327 213C299.7 207 272.3 199 245.2 203C218 207 191 223 163.8 223C136.7 223 109.3 207 82 200C54.7 193 27.3 195 13.7 196L0 197Z" fill="#8c70f6"></path><path d="M0 547L13.7 543C27.3 539 54.7 531 82 527C109.3 523 136.7 523 163.8 520C191 517 218 511 245.2 514C272.3 517 299.7 529 327 537C354.3 545 381.7 549 409 549C436.3 549 463.7 545 491 536C518.3 527 545.7 513 573 513C600.3 513 627.7 527 654.8 530C682 533 709 525 736.2 529C763.3 533 790.7 549 818 547C845.3 545 872.7 525 886.3 515L900 505L900 347L886.3 342C872.7 337 845.3 327 818 320C790.7 313 763.3 309 736.2 323C709 337 682 369 654.8 387C627.7 405 600.3 409 573 401C545.7 393 518.3 373 491 367C463.7 361 436.3 369 409 386C381.7 403 354.3 429 327 425C299.7 421 272.3 387 245.2 386C218 385 191 417 163.8 416C136.7 415 109.3 381 82 357C54.7 333 27.3 319 13.7 312L0 305Z" fill="#7e60e9"></path><path d="M0 601L13.7 601C27.3 601 54.7 601 82 601C109.3 601 136.7 601 163.8 601C191 601 218 601 245.2 601C272.3 601 299.7 601 327 601C354.3 601 381.7 601 409 601C436.3 601 463.7 601 491 601C518.3 601 545.7 601 573 601C600.3 601 627.7 601 654.8 601C682 601 709 601 736.2 601C763.3 601 790.7 601 818 601C845.3 601 872.7 601 886.3 601L900 601L900 503L886.3 513C872.7 523 845.3 543 818 545C790.7 547 763.3 531 736.2 527C709 523 682 531 654.8 528C627.7 525 600.3 511 573 511C545.7 511 518.3 525 491 534C463.7 543 436.3 547 409 547C381.7 547 354.3 543 327 535C299.7 527 272.3 515 245.2 512C218 509 191 515 163.8 518C136.7 521 109.3 521 82 525C54.7 529 27.3 537 13.7 541L0 545Z" fill="#6f51dc"></path></svg>