<svg id="visual" viewBox="0 0 960 540" width="960" height="540" xmlns="http://www.w3.org/2000/svg" xmlns:xlink="http://www.w3.org/1999/xlink" version="1.1"><rect x="0" y="0" width="960" height="540" fill="#afd8f7"></rect><defs><linearGradient id="grad1_0" x1="43.8%" y1="100%" x2="100%" y2="0%"><stop offset="14.444444444444446%" stop-color="#afd8f7" stop-opacity="1"></stop><stop offset="85.55555555555554%" stop-color="#afd8f7" stop-opacity="1"></stop></linearGradient></defs><defs><linearGradient id="grad2_0" x1="0%" y1="100%" x2="56.3%" y2="0%"><stop offset="14.444444444444446%" stop-color="#afd8f7" stop-opacity="1"></stop><stop offset="85.55555555555554%" stop-color="#afd8f7" stop-opacity="1"></stop></linearGradient></defs><g transform="translate(960, 540)"><path d="M-378 0C-336.6 -16.5 -295.2 -33.1 -273.8 -48.3C-252.4 -63.5 -251 -77.3 -247.1 -90C-243.2 -102.6 -236.8 -114.2 -249.4 -144C-262.1 -173.8 -293.8 -221.9 -289.6 -243C-285.3 -264 -245.2 -258 -215.3 -256.6C-185.5 -255.3 -166 -258.7 -145 -251.1C-124 -243.6 -101.4 -225.2 -89.3 -245.3C-77.1 -265.4 -75.3 -324 -62.2 -352.6C-49 -381.1 -24.5 -379.6 0 -378L0 0Z" fill="#a3e9f6"></path></g><g transform="translate(0, 0)"><path d="M378 0C343.4 17.4 308.8 34.8 297.4 52.4C286.1 70 298 87.8 311 113.2C324.1 138.6 338.3 171.6 327.4 189C316.5 206.4 280.5 208.4 251.3 210.8C222 213.3 199.5 216.3 176.8 210.7C154 205.1 130.9 190.9 122.5 212.2C114.1 233.5 120.3 290.2 109.4 300.7C98.6 311.2 70.6 275.5 49.5 280.7C28.4 285.8 14.2 331.9 0 378L0 0Z" fill="#a3e9f6"></path></g></svg>